<svg width="1920" height="1080" viewBox="0 0 1920 1080" fill="none" xmlns="http://www.w3.org/2000/svg">
<rect width="1920" height="1080" fill="white"/>
<path d="M45.6191 69.6553L45.3701 68.9375C43.2803 66.7891 40.8096 65.1533 37.958 64.0303L39.1152 61.6279C40.9316 62.3994 42.626 63.3955 44.1982 64.6162C45.7705 65.8271 47.0889 67.1455 48.1533 68.5713L48.4902 69.3477C50.1504 71.6719 50.9805 74.2451 50.9805 77.0674C50.9805 79.0596 50.4727 80.6123 49.457 81.7256C48.4512 82.8291 47.0156 83.3809 45.1504 83.3809C43.9199 83.3809 42.8555 83.0928 41.957 82.5166C41.0586 81.9307 39.9648 80.7637 38.6758 79.0156C37.9629 78.0586 37.4355 77.4385 37.0938 77.1553C36.7617 76.8623 36.3711 76.7158 35.9219 76.7158C35.4629 76.7158 35.082 76.9014 34.7793 77.2725C34.4863 77.6436 34.3398 78.1221 34.3398 78.708C34.3398 79.3623 34.4473 79.9971 34.6621 80.6123C34.8867 81.2178 35.2529 81.8721 35.7607 82.5752L33.3291 83.3955C32.8213 82.5752 32.4502 81.7939 32.2158 81.0518C31.9912 80.3096 31.8789 79.5332 31.8789 78.7227C31.8789 77.4922 32.2598 76.4668 33.0215 75.6465C33.793 74.8262 34.7646 74.416 35.9365 74.416C36.6201 74.416 37.2109 74.5234 37.709 74.7383C38.2168 74.9531 38.6709 75.251 39.0713 75.6318C39.4717 76.0127 40.0576 76.7207 40.8291 77.7559C41.5322 78.7129 42.0938 79.3965 42.5137 79.8066C42.9336 80.2168 43.3633 80.5244 43.8027 80.7295C44.252 80.9248 44.7598 81.0225 45.3262 81.0225C46.3809 81.0225 47.1719 80.6953 47.6992 80.041C48.2266 79.3867 48.4902 78.4004 48.4902 77.082C48.4902 74.4746 47.5332 71.999 45.6191 69.6553ZM55.5508 68.0146C56.6934 68.0146 57.6064 68.0781 58.29 68.2051C58.9834 68.3223 59.6084 68.5615 60.165 68.9229C60.7217 69.2842 61.1514 69.7578 61.4541 70.3438C61.7568 70.9199 61.9082 71.6377 61.9082 72.4971C61.9082 73.6982 61.5225 74.6553 60.751 75.3682C59.9893 76.0811 58.9639 76.4375 57.6748 76.4375C56.3955 76.4375 55.3896 76.0811 54.6572 75.3682C53.9248 74.6455 53.5586 73.752 53.5586 72.6875C53.5586 71.8184 53.7734 71.0127 54.2031 70.2705H33.915V68.0146H55.5508ZM56.5176 70.2705C56.0098 70.9443 55.7559 71.6719 55.7559 72.4531C55.7559 73.0586 55.9365 73.5469 56.2979 73.918C56.6689 74.2793 57.1621 74.46 57.7773 74.46C58.3828 74.46 58.8564 74.2842 59.1982 73.9326C59.54 73.5811 59.7109 73.1123 59.7109 72.5264C59.7109 71.7646 59.4863 71.1982 59.0371 70.8271C58.5879 70.4561 57.8799 70.2705 56.9131 70.2705H56.5176ZM71.5029 75.6611C71.8252 75.1924 72.0449 74.7725 72.1621 74.4014C72.2891 74.0303 72.3525 73.6299 72.3525 73.2002C72.3525 72.2725 72.0547 71.5352 71.459 70.9883C70.8633 70.4316 70.0283 70.1533 68.9541 70.1533C67.9287 70.1533 67.1133 70.417 66.5078 70.9443C65.9121 71.4619 65.6143 72.1504 65.6143 73.0098C65.6143 73.5371 65.7607 74.0742 66.0537 74.6211C66.3564 75.168 66.8154 75.7344 67.4307 76.3203C68.0459 76.9062 69.0322 77.7217 70.3896 78.7666C72.5283 80.4072 74.0127 81.8916 74.8428 83.2197C75.6729 84.5576 76.0879 86.0908 76.0879 87.8193C76.0879 89.4307 75.6045 90.7148 74.6377 91.6719C73.6807 92.6289 72.3721 93.1074 70.7119 93.1074C69.8525 93.1074 69.0762 92.9414 68.3828 92.6094C67.6895 92.2773 67.0059 91.7598 66.332 91.0566C65.7266 91.8477 65.1406 92.3848 64.5742 92.668C64.0078 92.9609 63.3193 93.1074 62.5088 93.1074C61.3271 93.1074 60.3994 92.7607 59.7256 92.0674C59.042 91.3838 58.7002 90.4854 58.7002 89.3721C58.7002 88.3564 59.0566 87.5068 59.7695 86.8232C60.4727 86.1396 61.3467 85.7979 62.3916 85.7979C63.1729 85.7979 63.8809 85.959 64.5156 86.2812C65.1602 86.6133 65.9756 87.3555 66.9619 88.5078C67.9189 89.6211 68.6514 90.3096 69.1592 90.5732C69.667 90.8369 70.2383 90.9688 70.873 90.9688C71.7617 90.9688 72.4453 90.6807 72.9238 90.1045C73.4121 89.5381 73.6562 88.7568 73.6562 87.7607C73.6562 86.833 73.4805 86.0078 73.1289 85.2852C72.7773 84.5625 72.2109 83.8008 71.4297 83C70.6484 82.1895 69.4814 81.1787 67.9287 79.9678C66.1709 78.6104 64.9502 77.4043 64.2666 76.3496C63.583 75.2949 63.2412 74.1768 63.2412 72.9951C63.2412 71.5693 63.7734 70.3828 64.8379 69.4355C65.9121 68.4883 67.3037 68.0146 69.0127 68.0146C70.8193 68.0146 72.2207 68.4785 73.2168 69.4062C74.2227 70.334 74.7256 71.5303 74.7256 72.9951C74.7256 74.3232 74.2764 75.6025 73.3779 76.833L71.5029 75.6611ZM64.9697 89.4453C64.5205 88.8887 64.125 88.4834 63.7832 88.2295C63.4512 87.9756 63.0264 87.8486 62.5088 87.8486C62.0596 87.8486 61.6885 87.9951 61.3955 88.2881C61.0928 88.5811 60.9414 88.9668 60.9414 89.4453C60.9414 89.9629 61.0928 90.3682 61.3955 90.6611C61.6885 90.9541 62.0938 91.1006 62.6113 91.1006C63.0898 91.1006 63.5146 90.9688 63.8857 90.7051C64.2666 90.4512 64.6279 90.0312 64.9697 89.4453ZM87.5283 82.1357C88.4951 80.7686 89.125 79.6162 89.418 78.6787C89.7207 77.7314 89.8721 76.7354 89.8721 75.6904C89.8721 73.9326 89.4375 72.5898 88.5684 71.6621C87.6992 70.7344 86.4248 70.2705 84.7451 70.2705C83.2119 70.2705 82.001 70.749 81.1123 71.7061C80.2236 72.6631 79.7793 73.9814 79.7793 75.6611C79.7793 76.8135 79.96 77.9023 80.3213 78.9277C80.6924 79.9531 81.293 81.0225 82.123 82.1357L79.6182 83.2344C78.0654 80.8125 77.2891 78.2881 77.2891 75.6611C77.2891 74.2061 77.6016 72.8877 78.2266 71.7061C78.8516 70.5146 79.7402 69.6016 80.8926 68.9668C82.0547 68.332 83.3975 68.0146 84.9209 68.0146C87.2549 68.0146 89.0762 68.6689 90.3848 69.9775C91.7031 71.2764 92.3623 73.0635 92.3623 75.3389C92.3623 76.7354 92.1914 78.0488 91.8496 79.2793C91.5078 80.5098 90.8975 81.8281 90.0186 83.2344L87.5283 82.1357ZM82.2402 65.2607C82.4355 66.0127 82.626 66.584 82.8115 66.9746C82.9971 67.3652 83.1924 67.6387 83.3975 67.7949C83.6123 67.9414 83.876 68.0146 84.1885 68.0146C84.5791 68.0146 84.9502 67.8926 85.3018 67.6484C85.6533 67.4043 86.1514 66.8672 86.7959 66.0371L87.7188 64.8359C88.7539 63.4785 89.6963 62.5459 90.5459 62.0381C91.3955 61.5205 92.4502 61.2568 93.71 61.2471L93.8711 63.5615C93.1777 63.6006 92.6162 63.7031 92.1865 63.8691C91.7568 64.0352 91.3564 64.2793 90.9854 64.6016C90.624 64.9141 90.1211 65.4854 89.4766 66.3154L88.7881 67.209C87.9678 68.2734 87.1914 69.0498 86.459 69.5381C85.7363 70.0264 84.9209 70.2705 84.0127 70.2705C82.8701 70.2705 81.9619 69.9043 81.2881 69.1719C80.624 68.4297 80.1113 67.3945 79.75 66.0664L82.2402 65.2607ZM97.0059 77.126C97.4258 78.3857 98.3438 79.3525 99.7598 80.0264C101.186 80.6904 103.012 81.0225 105.238 81.0225C107.67 81.0225 109.594 80.6318 111.01 79.8506C112.426 79.0596 113.295 77.9121 113.617 76.4082C112.748 77.2188 111.693 77.624 110.453 77.624C109.271 77.624 108.314 77.292 107.582 76.6279C106.859 75.9541 106.498 75.0605 106.498 73.9473C106.498 73.1074 106.767 72.3701 107.304 71.7354C107.841 71.0908 108.563 70.6807 109.472 70.5049C108.69 70.2998 107.68 70.1973 106.439 70.1973L107.113 68C110.023 68.4102 112.206 69.2598 113.661 70.5488C115.126 71.8281 115.858 73.5469 115.858 75.7051C115.858 78.0781 114.955 79.9531 113.148 81.3301C111.352 82.6973 108.769 83.3809 105.399 83.3809C101.981 83.3809 99.335 82.707 97.46 81.3594C95.585 80.002 94.6475 78.1758 94.6475 75.8809C94.6475 74.1328 95.1602 72.7021 96.1855 71.5889C97.2109 70.4658 98.5244 69.9043 100.126 69.9043C101.366 69.9043 102.343 70.2412 103.056 70.915C103.778 71.5889 104.14 72.4824 104.14 73.5957C104.14 74.8359 103.715 75.8174 102.865 76.54C102.025 77.2627 100.868 77.624 99.3936 77.624C98.4756 77.624 97.6797 77.458 97.0059 77.126ZM96.8594 74.9287C97.5039 75.3291 98.2266 75.5293 99.0273 75.5293C100.844 75.5293 101.752 74.8896 101.752 73.6104C101.752 73.0928 101.596 72.7021 101.283 72.4385C100.971 72.165 100.536 72.0283 99.9795 72.0283C99.1787 72.0283 98.5 72.2822 97.9434 72.79C97.3965 73.2979 97.0352 74.0107 96.8594 74.9287ZM113.485 73.6982C113.212 73.1709 112.846 72.7607 112.387 72.4678C111.928 72.1748 111.42 72.0283 110.863 72.0283C110.277 72.0283 109.799 72.1846 109.428 72.4971C109.057 72.7998 108.871 73.2295 108.871 73.7861C108.871 74.3232 109.042 74.748 109.384 75.0605C109.735 75.373 110.224 75.5293 110.849 75.5293C111.483 75.5293 112.035 75.3682 112.504 75.0459C112.973 74.7236 113.3 74.2744 113.485 73.6982ZM104.799 65.2607C104.994 66.0127 105.185 66.584 105.37 66.9746C105.556 67.3652 105.751 67.6387 105.956 67.7949C106.171 67.9414 106.435 68.0146 106.747 68.0146C107.138 68.0146 107.509 67.8926 107.86 67.6484C108.212 67.4043 108.71 66.8672 109.354 66.0371L110.277 64.8359C111.312 63.4785 112.255 62.5459 113.104 62.0381C113.954 61.5205 115.009 61.2568 116.269 61.2471L116.43 63.5615C115.736 63.6006 115.175 63.7031 114.745 63.8691C114.315 64.0352 113.915 64.2793 113.544 64.6016C113.183 64.9141 112.68 65.4854 112.035 66.3154L111.347 67.209C110.526 68.2734 109.75 69.0498 109.018 69.5381C108.295 70.0264 107.479 70.2705 106.571 70.2705C105.429 70.2705 104.521 69.9043 103.847 69.1719C103.183 68.4297 102.67 67.3945 102.309 66.0664L104.799 65.2607ZM124.516 70.168C125.775 70.168 126.913 70.4512 127.929 71.0176C128.944 71.584 129.73 72.3799 130.287 73.4053C130.854 74.4209 131.137 75.5488 131.137 76.7891C131.137 78.7227 130.521 80.3047 129.291 81.5352C128.07 82.7656 126.479 83.3809 124.516 83.3809C123.266 83.3809 122.133 83.1074 121.117 82.5605C120.111 82.0137 119.325 81.2275 118.759 80.2021C118.192 79.1768 117.909 78.0391 117.909 76.7891C117.909 75.5488 118.192 74.4209 118.759 73.4053C119.325 72.3896 120.111 71.5986 121.117 71.0322C122.123 70.4561 123.256 70.168 124.516 70.168ZM124.516 81.0225C125.814 81.0225 126.83 80.6318 127.562 79.8506C128.305 79.0693 128.676 78.0439 128.676 76.7744C128.676 75.5244 128.295 74.5039 127.533 73.7129C126.781 72.9219 125.775 72.5264 124.516 72.5264C123.266 72.5264 122.265 72.9219 121.513 73.7129C120.761 74.4941 120.385 75.5146 120.385 76.7744C120.385 78.0342 120.751 79.0596 121.483 79.8506C122.216 80.6318 123.227 81.0225 124.516 81.0225Z" fill="#D8D8D8"/>
<path d="M46.99 427.85C46.03 427.85 45.22 428.66 45.22 429.62C45.22 430.64 46.03 431.42 46.99 431.42C47.98 431.42 48.82 430.64 48.82 429.62C48.82 428.66 47.98 427.85 46.99 427.85ZM48.4 449L47.92 433.82H46.09L45.64 449H48.4ZM66.6273 422V431.15H56.3673V422H53.6373V443H56.3673V433.61H66.6273V443H69.3273V422H66.6273ZM80.8009 443.3C85.1509 443.3 88.3609 440 88.3609 435.5C88.3609 431.03 85.1209 427.7 80.8009 427.7C76.4209 427.7 73.2709 431 73.2709 435.5C73.2709 439.94 76.4809 443.3 80.8009 443.3ZM80.8009 440.99C77.8609 440.99 75.9109 438.47 75.9109 435.5C75.9109 432.5 77.8309 430.01 80.8009 430.01C83.7409 430.01 85.7509 432.5 85.7509 435.5C85.7509 438.47 83.7409 440.99 80.8009 440.99ZM91.8578 443H94.4678V421.7H91.8578V443ZM111.341 440.96C110.561 440.96 110.171 440.6 110.171 439.73V433.22C110.171 429.59 107.771 427.7 104.411 427.7C100.961 427.7 98.8612 429.83 98.5612 432.71H101.171C101.471 431.09 102.371 429.86 104.411 429.86C106.421 429.86 107.531 431.12 107.531 433.16V434L103.061 434.42C100.121 434.72 97.9612 436.19 97.9612 439.01C97.9612 441.95 100.121 443.3 102.911 443.3C105.131 443.3 106.811 442.43 107.861 441.08C108.191 442.52 109.121 443 110.531 443H111.731V440.96H111.341ZM107.531 437.24C107.531 440.15 105.251 441.2 103.271 441.2C101.831 441.2 100.601 440.6 100.601 438.92C100.601 437.33 101.951 436.46 103.901 436.28L107.531 435.92V437.24ZM115.249 422L115.729 437.18H117.589L118.009 422H115.249ZM116.659 443.15C117.649 443.15 118.429 442.34 118.429 441.38C118.429 440.36 117.649 439.58 116.659 439.58C115.669 439.58 114.859 440.36 114.859 441.38C114.859 442.34 115.669 443.15 116.659 443.15Z" fill="#D8D8D8"/>
<path d="M1663.47 731.36C1662.41 731.36 1661.44 731.1 1660.56 730.58C1659.68 730.04 1658.98 729.21 1658.46 728.09C1657.96 726.97 1657.71 725.51 1657.71 723.71C1657.71 721.57 1658.13 719.78 1658.97 718.34C1659.83 716.9 1660.96 715.82 1662.36 715.1C1663.76 714.38 1665.28 714.02 1666.92 714.02C1668.96 714.02 1670.61 714.41 1671.87 715.19C1673.13 715.97 1674.05 717.01 1674.63 718.31C1675.23 719.59 1675.53 721.02 1675.53 722.6C1675.53 723.88 1675.39 725.02 1675.11 726.02C1674.83 727.02 1674.49 727.96 1674.09 728.84H1682.1V714.38H1684.68V731H1671.45L1671.33 729.11C1671.79 728.41 1672.16 727.55 1672.44 726.53C1672.74 725.49 1672.89 724.29 1672.89 722.93C1672.89 720.79 1672.34 719.14 1671.24 717.98C1670.14 716.82 1668.66 716.24 1666.8 716.24C1664.96 716.24 1663.46 716.81 1662.3 717.95C1661.16 719.07 1660.46 720.52 1660.2 722.3C1660.72 721.96 1661.29 721.69 1661.91 721.49C1662.53 721.27 1663.17 721.16 1663.83 721.16C1665.27 721.16 1666.43 721.6 1667.31 722.48C1668.21 723.36 1668.66 724.55 1668.66 726.05C1668.66 727.71 1668.19 729.01 1667.25 729.95C1666.33 730.89 1665.07 731.36 1663.47 731.36ZM1663.41 723.26C1662.81 723.26 1662.23 723.39 1661.67 723.65C1661.11 723.89 1660.59 724.22 1660.11 724.64C1660.19 726.36 1660.56 727.57 1661.22 728.27C1661.88 728.97 1662.67 729.32 1663.59 729.32C1664.37 729.32 1665 729.07 1665.48 728.57C1665.96 728.05 1666.2 727.31 1666.2 726.35C1666.2 725.35 1665.94 724.59 1665.42 724.07C1664.9 723.53 1664.23 723.26 1663.41 723.26ZM1694.79 731.36C1693.73 731.36 1692.76 731.1 1691.88 730.58C1691 730.04 1690.3 729.21 1689.78 728.09C1689.28 726.97 1689.03 725.51 1689.03 723.71C1689.03 721.73 1689.46 720.02 1690.32 718.58C1691.2 717.12 1692.43 716 1694.01 715.22C1695.59 714.42 1697.44 714.02 1699.56 714.02C1700.94 714.02 1702.22 714.18 1703.4 714.5C1704.6 714.8 1705.76 715.29 1706.88 715.97C1708.7 714.67 1710.84 714.02 1713.3 714.02C1714.58 714.02 1715.73 714.18 1716.75 714.5C1717.77 714.82 1718.73 715.3 1719.63 715.94C1720.19 715.62 1720.8 715.35 1721.46 715.13C1722.14 714.89 1722.94 714.71 1723.86 714.59C1724.8 714.45 1725.95 714.38 1727.31 714.38H1736.25V716.54H1731.15V731H1728.57V716.54H1726.62C1725.56 716.54 1724.61 716.6 1723.77 716.72C1722.95 716.82 1722.15 717.06 1721.37 717.44C1722.35 718.42 1723.12 719.58 1723.68 720.92C1724.24 722.26 1724.52 723.73 1724.52 725.33C1724.52 727.33 1724.08 728.84 1723.2 729.86C1722.34 730.86 1721.15 731.36 1719.63 731.36C1718.49 731.36 1717.55 731.1 1716.81 730.58C1716.09 730.06 1715.55 729.36 1715.19 728.48C1714.85 727.58 1714.68 726.56 1714.68 725.42C1714.68 723.9 1714.92 722.48 1715.4 721.16C1715.88 719.82 1716.68 718.56 1717.8 717.38C1717.08 716.96 1716.34 716.66 1715.58 716.48C1714.84 716.3 1714.1 716.21 1713.36 716.21C1712.46 716.21 1711.62 716.3 1710.84 716.48C1710.06 716.64 1709.3 716.94 1708.56 717.38C1709.66 718.4 1710.52 719.58 1711.14 720.92C1711.76 722.24 1712.07 723.71 1712.07 725.33C1712.07 727.33 1711.63 728.84 1710.75 729.86C1709.89 730.86 1708.71 731.36 1707.21 731.36C1706.05 731.36 1705.1 731.1 1704.36 730.58C1703.64 730.06 1703.1 729.36 1702.74 728.48C1702.4 727.58 1702.23 726.56 1702.23 725.42C1702.23 723.84 1702.47 722.37 1702.95 721.01C1703.43 719.65 1704.15 718.48 1705.11 717.5C1704.25 717.04 1703.33 716.72 1702.35 716.54C1701.37 716.34 1700.34 716.24 1699.26 716.24C1697.06 716.24 1695.3 716.81 1693.98 717.95C1692.66 719.07 1691.84 720.52 1691.52 722.3C1692.04 721.94 1692.61 721.66 1693.23 721.46C1693.85 721.26 1694.49 721.16 1695.15 721.16C1696.59 721.16 1697.75 721.6 1698.63 722.48C1699.53 723.36 1699.98 724.55 1699.98 726.05C1699.98 727.71 1699.51 729.01 1698.57 729.95C1697.65 730.89 1696.39 731.36 1694.79 731.36ZM1717.2 725.33C1717.2 726.71 1717.41 727.72 1717.83 728.36C1718.25 729 1718.82 729.32 1719.54 729.32C1720.18 729.32 1720.67 729.13 1721.01 728.75C1721.37 728.37 1721.62 727.89 1721.76 727.31C1721.9 726.73 1721.97 726.14 1721.97 725.54C1721.97 724.08 1721.72 722.76 1721.22 721.58C1720.74 720.38 1720.15 719.42 1719.45 718.7C1718.71 719.42 1718.15 720.38 1717.77 721.58C1717.39 722.76 1717.2 724.01 1717.2 725.33ZM1704.75 725.33C1704.75 726.71 1704.96 727.72 1705.38 728.36C1705.8 729 1706.38 729.32 1707.12 729.32C1707.74 729.32 1708.22 729.13 1708.56 728.75C1708.92 728.37 1709.17 727.89 1709.31 727.31C1709.45 726.73 1709.52 726.14 1709.52 725.54C1709.52 724.16 1709.29 722.91 1708.83 721.79C1708.37 720.65 1707.7 719.65 1706.82 718.79C1706.06 719.65 1705.52 720.67 1705.2 721.85C1704.9 723.01 1704.75 724.17 1704.75 725.33ZM1694.73 723.26C1694.11 723.26 1693.52 723.39 1692.96 723.65C1692.42 723.89 1691.9 724.22 1691.4 724.64C1691.5 726.36 1691.87 727.57 1692.51 728.27C1693.17 728.97 1693.97 729.32 1694.91 729.32C1695.73 729.32 1696.37 729.07 1696.83 728.57C1697.29 728.05 1697.52 727.31 1697.52 726.35C1697.52 725.35 1697.26 724.59 1696.74 724.07C1696.22 723.53 1695.55 723.26 1694.73 723.26ZM1743.25 731.36C1742.05 731.36 1740.97 731.17 1740.01 730.79C1739.05 730.41 1738.29 729.85 1737.73 729.11C1737.17 728.37 1736.89 727.48 1736.89 726.44C1736.89 725.4 1737.15 724.49 1737.67 723.71C1738.21 722.93 1739.06 722.33 1740.22 721.91V714.38H1755.91V716.54H1750.3V721.16H1750.78C1752.34 721.16 1753.6 721.28 1754.56 721.52C1755.52 721.74 1756.34 722.11 1757.02 722.63C1757.54 723.03 1757.95 723.56 1758.25 724.22C1758.55 724.86 1758.7 725.6 1758.7 726.44C1758.7 727.96 1758.24 729.14 1757.32 729.98C1756.42 730.82 1755.14 731.24 1753.48 731.24C1753.02 731.24 1752.52 731.21 1751.98 731.15C1751.44 731.09 1750.94 730.99 1750.48 730.85L1751.05 728.84C1751.71 729.04 1752.44 729.14 1753.24 729.14C1755.16 729.14 1756.12 728.2 1756.12 726.32C1756.12 725.4 1755.86 724.73 1755.34 724.31C1754.84 723.87 1754.2 723.59 1753.42 723.47C1752.64 723.33 1751.83 723.26 1750.99 723.26H1750.3V724.22C1750.3 725.56 1750.18 726.61 1749.94 727.37C1749.72 728.13 1749.4 728.77 1748.98 729.29C1748.36 730.05 1747.56 730.59 1746.58 730.91C1745.62 731.21 1744.51 731.36 1743.25 731.36ZM1742.59 716.54V721.34C1743.43 721.22 1744.36 721.16 1745.38 721.16H1747.75V716.54H1742.59ZM1739.47 726.41C1739.47 727.33 1739.85 728.03 1740.61 728.51C1741.37 728.97 1742.33 729.2 1743.49 729.2C1744.37 729.2 1745.12 729.07 1745.74 728.81C1746.38 728.53 1746.87 728.06 1747.21 727.4C1747.57 726.74 1747.75 725.81 1747.75 724.61V723.26H1745.17C1744.15 723.26 1743.28 723.32 1742.56 723.44C1741.86 723.56 1741.26 723.76 1740.76 724.04C1739.9 724.54 1739.47 725.33 1739.47 726.41ZM1748.38 710.66C1747.8 710.66 1747.32 710.48 1746.94 710.12C1746.56 709.74 1746.37 709.25 1746.37 708.65C1746.37 708.07 1746.56 707.59 1746.94 707.21C1747.32 706.83 1747.8 706.64 1748.38 706.64C1748.96 706.64 1749.44 706.83 1749.82 707.21C1750.2 707.59 1750.39 708.07 1750.39 708.65C1750.39 709.25 1750.2 709.74 1749.82 710.12C1749.44 710.48 1748.96 710.66 1748.38 710.66ZM1768.01 731.36C1766.81 731.36 1765.73 731.17 1764.77 730.79C1763.81 730.41 1763.05 729.85 1762.49 729.11C1761.93 728.37 1761.65 727.48 1761.65 726.44C1761.65 725.4 1761.91 724.49 1762.43 723.71C1762.97 722.93 1763.82 722.33 1764.98 721.91V714.38H1780.67V716.54H1775.06V721.16H1775.54C1777.1 721.16 1778.36 721.28 1779.32 721.52C1780.28 721.74 1781.1 722.11 1781.78 722.63C1782.3 723.03 1782.71 723.56 1783.01 724.22C1783.31 724.86 1783.46 725.6 1783.46 726.44C1783.46 727.96 1783 729.14 1782.08 729.98C1781.18 730.82 1779.9 731.24 1778.24 731.24C1777.78 731.24 1777.28 731.21 1776.74 731.15C1776.2 731.09 1775.7 730.99 1775.24 730.85L1775.81 728.84C1776.47 729.04 1777.2 729.14 1778 729.14C1779.92 729.14 1780.88 728.2 1780.88 726.32C1780.88 725.4 1780.62 724.73 1780.1 724.31C1779.6 723.87 1778.96 723.59 1778.18 723.47C1777.4 723.33 1776.59 723.26 1775.75 723.26H1775.06V724.22C1775.06 725.56 1774.94 726.61 1774.7 727.37C1774.48 728.13 1774.16 728.77 1773.74 729.29C1773.12 730.05 1772.32 730.59 1771.34 730.91C1770.38 731.21 1769.27 731.36 1768.01 731.36ZM1767.35 716.54V721.34C1768.19 721.22 1769.12 721.16 1770.14 721.16H1772.51V716.54H1767.35ZM1764.23 726.41C1764.23 727.33 1764.61 728.03 1765.37 728.51C1766.13 728.97 1767.09 729.2 1768.25 729.2C1769.13 729.2 1769.88 729.07 1770.5 728.81C1771.14 728.53 1771.63 728.06 1771.97 727.4C1772.33 726.74 1772.51 725.81 1772.51 724.61V723.26H1769.93C1768.91 723.26 1768.04 723.32 1767.32 723.44C1766.62 723.56 1766.02 723.76 1765.52 724.04C1764.66 724.54 1764.23 725.33 1764.23 726.41ZM1802.34 714.02C1803.84 714.02 1805.07 714.41 1806.03 715.19C1806.99 715.95 1807.7 717.02 1808.16 718.4C1808.62 719.76 1808.85 721.34 1808.85 723.14C1808.85 724.54 1808.7 725.74 1808.4 726.74C1808.1 727.74 1807.62 728.56 1806.96 729.2C1806.26 729.88 1805.4 730.35 1804.38 730.61C1803.38 730.87 1802.02 731 1800.3 731H1787.58V714.38H1790.16V728.84H1796.94V720.35C1796.94 719.11 1797.05 718.13 1797.27 717.41C1797.51 716.67 1797.85 716.05 1798.29 715.55C1798.75 715.05 1799.3 714.67 1799.94 714.41C1800.58 714.15 1801.38 714.02 1802.34 714.02ZM1802.28 716.18C1801.94 716.18 1801.61 716.24 1801.29 716.36C1800.97 716.46 1800.7 716.63 1800.48 716.87C1800.16 717.23 1799.92 717.68 1799.76 718.22C1799.6 718.74 1799.52 719.62 1799.52 720.86V728.84H1800.93C1802.29 728.84 1803.35 728.65 1804.11 728.27C1804.87 727.89 1805.41 727.27 1805.73 726.41C1806.05 725.55 1806.21 724.41 1806.21 722.99C1806.21 721.71 1806.07 720.56 1805.79 719.54C1805.53 718.52 1805.11 717.71 1804.53 717.11C1803.97 716.49 1803.22 716.18 1802.28 716.18ZM1797.84 710.66C1797.26 710.66 1796.78 710.48 1796.4 710.12C1796.02 709.74 1795.83 709.25 1795.83 708.65C1795.83 708.07 1796.02 707.59 1796.4 707.21C1796.78 706.83 1797.26 706.64 1797.84 706.64C1798.42 706.64 1798.9 706.83 1799.28 707.21C1799.66 707.59 1799.85 708.07 1799.85 708.65C1799.85 709.25 1799.66 709.74 1799.28 710.12C1798.9 710.48 1798.42 710.66 1797.84 710.66ZM1815.77 724.979H1813.32L1813.13 709.672H1815.98L1815.77 724.979ZM1813.03 729.638C1813.03 729.198 1813.16 728.832 1813.43 728.539C1813.7 728.236 1814.1 728.085 1814.63 728.085C1815.16 728.085 1815.56 728.236 1815.83 728.539C1816.1 728.832 1816.24 729.198 1816.24 729.638C1816.24 730.077 1816.1 730.443 1815.83 730.736C1815.56 731.02 1815.16 731.161 1814.63 731.161C1814.1 731.161 1813.7 731.02 1813.43 730.736C1813.16 730.443 1813.03 730.077 1813.03 729.638Z" fill="#D8D8D8"/>
<path d="M279 1009.61H276.12C275.31 1012.07 273.09 1013.78 269.94 1013.78C265.68 1013.78 262.74 1010.3 262.74 1005.59C262.74 1001 265.56 997.22 269.97 997.22C273 997.22 275.07 998.96 275.79 1001.57H278.67C277.92 997.22 274.41 994.7 269.94 994.7C263.94 994.7 259.98 999.35 259.98 1005.59C259.98 1011.8 263.91 1016.3 269.94 1016.3C274.59 1016.3 278.22 1013.66 279 1009.61ZM283.686 998.6C284.616 998.6 285.396 997.82 285.396 996.86C285.396 995.9 284.616 995.15 283.686 995.15C282.726 995.15 281.916 995.9 281.916 996.86C281.916 997.82 282.726 998.6 283.686 998.6ZM282.366 1016H284.976V1001H282.366V1016ZM301.849 1013.96C301.069 1013.96 300.679 1013.6 300.679 1012.73V1006.22C300.679 1002.59 298.279 1000.7 294.919 1000.7C291.469 1000.7 289.369 1002.83 289.069 1005.71H291.679C291.979 1004.09 292.879 1002.86 294.919 1002.86C296.929 1002.86 298.039 1004.12 298.039 1006.16V1007L293.569 1007.42C290.629 1007.72 288.469 1009.19 288.469 1012.01C288.469 1014.95 290.629 1016.3 293.419 1016.3C295.639 1016.3 297.319 1015.43 298.369 1014.08C298.699 1015.52 299.629 1016 301.039 1016H302.239V1013.96H301.849ZM298.039 1010.24C298.039 1013.15 295.759 1014.2 293.779 1014.2C292.339 1014.2 291.109 1013.6 291.109 1011.92C291.109 1010.33 292.459 1009.46 294.409 1009.28L298.039 1008.92V1010.24ZM311.768 1016.3C316.118 1016.3 319.328 1013 319.328 1008.5C319.328 1004.03 316.088 1000.7 311.768 1000.7C307.388 1000.7 304.238 1004 304.238 1008.5C304.238 1012.94 307.448 1016.3 311.768 1016.3ZM311.768 1013.99C308.828 1013.99 306.878 1011.47 306.878 1008.5C306.878 1005.5 308.798 1003.01 311.768 1003.01C314.708 1003.01 316.718 1005.5 316.718 1008.5C316.718 1011.47 314.708 1013.99 311.768 1013.99ZM323.423 995L323.903 1010.18H325.763L326.183 995H323.423ZM324.833 1016.15C325.823 1016.15 326.603 1015.34 326.603 1014.38C326.603 1013.36 325.823 1012.58 324.833 1012.58C323.843 1012.58 323.033 1013.36 323.033 1014.38C323.033 1015.34 323.843 1016.15 324.833 1016.15Z" fill="#D8D8D8"/>
<path d="M1755 209.477V207.338H1772.08V209.477H1768.96V226H1766.54V217.064H1761.14V218.676C1761.14 219.213 1761 219.628 1760.73 219.921C1760.46 220.204 1760.09 220.346 1759.6 220.346C1759.13 220.346 1758.62 220.141 1758.06 219.73C1757.5 219.311 1757.04 218.793 1756.67 218.178C1756.3 217.562 1756.11 216.991 1756.11 216.464C1756.11 215.438 1756.72 214.926 1757.93 214.926H1766.54V209.477H1755ZM1790.01 209.477H1786.89V226H1784.47V218.515H1777.85V219.599C1777.85 220.185 1777.72 220.644 1777.46 220.976C1777.19 221.308 1776.84 221.474 1776.4 221.474C1775.93 221.474 1775.42 221.273 1774.85 220.873C1774.28 220.463 1773.8 219.95 1773.4 219.335C1773.01 218.71 1772.81 218.153 1772.81 217.665C1772.81 217.245 1772.97 216.928 1773.28 216.713C1773.59 216.488 1774.05 216.376 1774.64 216.376H1775.45V209.477H1771.64V207.338H1790.01V209.477ZM1784.47 216.376V209.477H1777.85V216.376H1784.47ZM1801 218.222C1798.84 218.222 1797.2 218.007 1796.09 217.577C1795.65 217.899 1795.15 218.178 1794.59 218.412C1795.42 219.467 1796.38 220.541 1797.48 221.635C1798.58 222.729 1799.75 223.769 1800.97 224.755L1799.36 226.366C1798.24 225.399 1797.14 224.369 1796.06 223.275C1794.98 222.172 1794.02 221.127 1793.19 220.141C1792.36 219.154 1791.75 218.339 1791.36 217.694C1791.12 217.294 1790.96 216.957 1790.87 216.684C1790.8 216.41 1790.76 216.117 1790.76 215.805C1790.76 215.541 1790.82 215.292 1790.95 215.058C1791.08 214.813 1791.29 214.613 1791.58 214.457C1791.87 214.301 1792.24 214.223 1792.68 214.223C1793.17 214.223 1793.61 214.34 1793.98 214.574C1794.36 214.799 1794.7 215.116 1795 215.526C1795.36 215.214 1795.62 214.779 1795.81 214.223C1796 213.666 1796.09 213.012 1796.09 212.26C1796.09 211.664 1796.04 211.127 1795.94 210.648C1795.84 210.16 1795.73 209.77 1795.59 209.477H1789.57V207.338H1801.67V209.477H1798.01C1798.34 210.248 1798.51 211.181 1798.51 212.274C1798.51 213.847 1798.15 215.082 1797.45 215.98C1798 216.049 1798.85 216.083 1800 216.083H1804.03V218.222H1801ZM1813.23 216.156H1809.96C1808.7 216.156 1807.75 216.225 1807.12 216.361C1806.49 216.488 1805.99 216.752 1805.6 217.152C1805.21 217.553 1805.01 218.129 1805.01 218.881C1805.01 219.516 1805.16 220.131 1805.46 220.727C1805.78 221.322 1806.24 221.942 1806.86 222.587C1807.47 223.222 1808.3 223.959 1809.35 224.799L1807.73 226.366C1806.34 225.165 1805.31 224.188 1804.66 223.437C1804.01 222.675 1803.51 221.908 1803.13 221.137C1802.77 220.365 1802.59 219.564 1802.59 218.734C1802.59 218.08 1802.72 217.455 1802.99 216.859C1803.26 216.254 1803.69 215.727 1804.26 215.277C1804.84 214.828 1805.53 214.506 1806.34 214.311C1807.16 214.115 1808.18 214.018 1809.4 214.018H1813.23V209.477H1801.23V207.338H1818.76V209.477H1815.64V226H1813.23V216.156ZM1813.26 207.558C1812.83 205.917 1812.41 204.662 1812.01 203.793C1811.6 202.914 1811.15 202.284 1810.66 201.903C1810.18 201.513 1809.58 201.317 1808.88 201.317C1808.54 201.317 1808.21 201.347 1807.9 201.405C1807.58 201.454 1807.22 201.562 1806.8 201.728L1806.06 199.545C1806.5 199.389 1806.94 199.276 1807.38 199.208C1807.81 199.14 1808.28 199.105 1808.79 199.105C1809.64 199.105 1810.38 199.252 1811.02 199.545C1811.64 199.828 1812.21 200.287 1812.73 200.922C1813.24 201.547 1813.72 202.401 1814.18 203.485C1814.64 204.569 1815.09 205.927 1815.53 207.558H1813.26Z" fill="#D8D8D8"/>
<path d="M1197.57 891.594C1197.57 892.98 1197.13 894.118 1196.24 895.007C1195.35 895.886 1194.1 896.447 1192.5 896.691V896.809C1194.32 897.053 1195.69 897.614 1196.62 898.493C1197.56 899.372 1198.03 900.52 1198.03 901.936C1198.03 903.938 1197.27 905.5 1195.75 906.623C1194.24 907.736 1192.12 908.293 1189.38 908.293C1186.81 908.293 1184.73 907.907 1183.14 907.136V904.675C1184.11 905.134 1185.14 905.485 1186.25 905.729C1187.36 905.964 1188.4 906.081 1189.35 906.081C1191.29 906.081 1192.74 905.725 1193.72 905.012C1194.71 904.299 1195.2 903.273 1195.2 901.936C1195.2 900.656 1194.65 899.689 1193.54 899.035C1192.44 898.371 1190.79 898.039 1188.61 898.039H1185.54V895.783H1188.45C1190.56 895.783 1192.15 895.432 1193.19 894.729C1194.25 894.016 1194.77 893.059 1194.77 891.857C1194.77 890.822 1194.38 890.007 1193.6 889.411C1192.83 888.806 1191.79 888.503 1190.47 888.503C1189.35 888.503 1188.35 888.635 1187.45 888.898C1186.56 889.162 1185.58 889.641 1184.52 890.334L1183.23 888.503C1185.29 887.019 1187.71 886.276 1190.5 886.276C1192.69 886.276 1194.42 886.755 1195.68 887.712C1196.94 888.669 1197.57 889.963 1197.57 891.594ZM1216.47 913.581H1213.92V908H1202.73V913.581H1200.21V905.773H1201.5C1202.8 903.967 1203.81 901.877 1204.53 899.504C1205.25 897.121 1205.63 894.592 1205.67 891.916H1214.12V905.773H1216.47V913.581ZM1211.58 905.773V893.996H1208C1207.85 896.154 1207.43 898.322 1206.74 900.5C1206.06 902.668 1205.22 904.426 1204.22 905.773H1211.58ZM1227.23 908.293C1225.08 908.293 1223.42 907.517 1222.25 905.964H1222.08L1222.14 906.564C1222.21 907.326 1222.25 908.005 1222.25 908.601V915.207H1219.62V891.916H1221.79L1222.14 894.113H1222.25C1222.88 893.234 1223.6 892.6 1224.42 892.209C1225.24 891.818 1226.19 891.623 1227.26 891.623C1229.35 891.623 1230.97 892.351 1232.13 893.806C1233.29 895.251 1233.87 897.292 1233.87 899.929C1233.87 902.556 1233.29 904.606 1232.13 906.081C1230.96 907.556 1229.33 908.293 1227.23 908.293ZM1226.79 893.835C1225.2 893.835 1224.05 894.284 1223.34 895.183C1222.63 896.081 1222.27 897.492 1222.25 899.416V899.929C1222.25 902.106 1222.62 903.684 1223.34 904.66C1224.06 905.627 1225.23 906.11 1226.85 906.11C1228.2 906.11 1229.25 905.563 1230 904.47C1230.76 903.376 1231.15 901.853 1231.15 899.899C1231.15 897.937 1230.76 896.438 1230 895.402C1229.25 894.357 1228.18 893.835 1226.79 893.835ZM1248.01 908L1247.49 905.715H1247.38C1246.58 906.721 1245.77 907.404 1244.97 907.766C1244.18 908.117 1243.18 908.293 1241.97 908.293C1240.39 908.293 1239.15 907.878 1238.25 907.048C1237.35 906.218 1236.9 905.046 1236.9 903.532C1236.9 900.271 1239.48 898.562 1244.62 898.405L1247.35 898.303V897.351C1247.35 896.13 1247.08 895.231 1246.56 894.655C1246.03 894.069 1245.18 893.776 1244.02 893.776C1243.17 893.776 1242.37 893.903 1241.6 894.157C1240.85 894.411 1240.14 894.694 1239.48 895.007L1238.67 893.029C1239.49 892.6 1240.37 892.263 1241.33 892.019C1242.28 891.774 1243.23 891.652 1244.17 891.652C1246.11 891.652 1247.56 892.082 1248.5 892.941C1249.45 893.801 1249.92 895.168 1249.92 897.043V908H1248.01ZM1242.57 906.169C1244.05 906.169 1245.2 905.773 1246.04 904.982C1246.89 904.182 1247.32 903.049 1247.32 901.584V900.134L1244.94 900.236C1243.1 900.305 1241.75 900.598 1240.9 901.115C1240.06 901.633 1239.64 902.448 1239.64 903.562C1239.64 904.401 1239.9 905.046 1240.4 905.495C1240.92 905.944 1241.64 906.169 1242.57 906.169ZM1268.15 895.974C1268.15 897.009 1267.85 897.8 1267.27 898.347C1266.68 898.884 1265.85 899.25 1264.76 899.445V899.577C1266.12 899.763 1267.11 900.168 1267.72 900.793C1268.35 901.408 1268.66 902.238 1268.66 903.283C1268.66 904.807 1268.1 905.974 1266.98 906.784C1265.86 907.595 1264.26 908 1262.16 908H1254.92V891.916H1262.13C1266.14 891.916 1268.15 893.269 1268.15 895.974ZM1266.02 903.137C1266.02 902.238 1265.67 901.608 1264.97 901.247C1264.27 900.886 1263.24 900.705 1261.88 900.705H1257.56V905.876H1261.94C1264.66 905.876 1266.02 904.963 1266.02 903.137ZM1265.57 896.208C1265.57 895.456 1265.28 894.919 1264.69 894.597C1264.11 894.274 1263.24 894.113 1262.07 894.113H1257.56V898.522H1261.58C1263.02 898.522 1264.04 898.347 1264.65 897.995C1265.26 897.634 1265.57 897.038 1265.57 896.208ZM1278.65 908.293C1276.34 908.293 1274.53 907.585 1273.25 906.169C1271.96 904.743 1271.31 902.702 1271.31 900.046C1271.31 897.351 1271.96 895.275 1273.26 893.82C1274.57 892.355 1276.43 891.623 1278.84 891.623C1279.62 891.623 1280.39 891.706 1281.16 891.872C1281.93 892.028 1282.56 892.233 1283.06 892.487L1282.25 894.685C1280.9 894.177 1279.74 893.923 1278.78 893.923C1277.16 893.923 1275.96 894.436 1275.19 895.461C1274.42 896.477 1274.04 897.995 1274.04 900.017C1274.04 901.96 1274.42 903.449 1275.19 904.484C1275.96 905.51 1277.11 906.022 1278.62 906.022C1280.04 906.022 1281.43 905.71 1282.8 905.085V907.429C1281.68 908.005 1280.3 908.293 1278.65 908.293ZM1297.72 894.143H1292.46V908H1289.86V894.143H1284.67V891.916H1297.72V894.143ZM1314.14 895.974C1314.14 897.009 1313.85 897.8 1313.26 898.347C1312.68 898.884 1311.84 899.25 1310.76 899.445V899.577C1312.12 899.763 1313.1 900.168 1313.72 900.793C1314.34 901.408 1314.66 902.238 1314.66 903.283C1314.66 904.807 1314.09 905.974 1312.97 906.784C1311.86 907.595 1310.25 908 1308.15 908H1300.92V891.916H1308.12C1312.14 891.916 1314.14 893.269 1314.14 895.974ZM1312.02 903.137C1312.02 902.238 1311.67 901.608 1310.96 901.247C1310.26 900.886 1309.23 900.705 1307.87 900.705H1303.55V905.876H1307.93C1310.66 905.876 1312.02 904.963 1312.02 903.137ZM1311.57 896.208C1311.57 895.456 1311.27 894.919 1310.69 894.597C1310.11 894.274 1309.24 894.113 1308.06 894.113H1303.55V898.522H1307.58C1309.02 898.522 1310.04 898.347 1310.64 897.995C1311.26 897.634 1311.57 897.038 1311.57 896.208ZM1315.68 891.916H1318.51L1321.98 901.071C1322.71 903.063 1323.16 904.523 1323.33 905.451H1323.45C1323.53 905.09 1323.73 904.416 1324.05 903.43C1324.36 902.434 1324.62 901.638 1324.84 901.042L1328.1 891.916H1330.95L1324.02 910.227C1323.34 912.004 1322.54 913.278 1321.61 914.05C1320.69 914.821 1319.54 915.207 1318.17 915.207C1317.44 915.207 1316.71 915.124 1315.99 914.958V912.863C1316.48 912.98 1317.06 913.039 1317.75 913.039C1318.59 913.039 1319.3 912.805 1319.89 912.336C1320.47 911.877 1320.95 911.164 1321.32 910.197L1322.16 908.059L1315.68 891.916ZM1335.98 891.916V901.73L1335.87 904.572L1335.81 905.393L1344.42 891.916H1347.66V908H1345.2V898.522L1345.24 896.486L1345.32 894.553L1336.76 908H1333.49V891.916H1335.98ZM1340.53 889.821C1338.65 889.821 1337.28 889.465 1336.42 888.752C1335.57 888.039 1335.1 886.877 1335 885.266H1337.46C1337.55 886.281 1337.82 886.989 1338.25 887.39C1338.7 887.79 1339.48 887.99 1340.58 887.99C1341.59 887.99 1342.33 887.775 1342.81 887.346C1343.3 886.916 1343.6 886.223 1343.7 885.266H1346.19C1346.05 886.848 1345.52 888.005 1344.6 888.737C1343.68 889.46 1342.32 889.821 1340.53 889.821ZM1363.9 894.143H1358.65V908H1356.04V894.143H1350.85V891.916H1363.9V894.143ZM1373.79 908.293C1371.38 908.293 1369.49 907.565 1368.11 906.11C1366.74 904.646 1366.06 902.634 1366.06 900.075C1366.06 897.497 1366.7 895.446 1367.98 893.923C1369.26 892.39 1370.98 891.623 1373.16 891.623C1375.18 891.623 1376.79 892.277 1378 893.586C1379.2 894.885 1379.8 896.647 1379.8 898.874V900.471H1368.78C1368.83 902.297 1369.29 903.684 1370.17 904.631C1371.05 905.578 1372.3 906.052 1373.91 906.052C1374.77 906.052 1375.58 905.979 1376.36 905.832C1377.13 905.676 1378.03 905.378 1379.07 904.938V907.253C1378.18 907.634 1377.34 907.902 1376.56 908.059C1375.78 908.215 1374.86 908.293 1373.79 908.293ZM1373.13 893.776C1371.87 893.776 1370.88 894.182 1370.14 894.992C1369.41 895.803 1368.98 896.931 1368.84 898.376H1377.03C1377.01 896.872 1376.66 895.729 1375.99 894.948C1375.32 894.167 1374.36 893.776 1373.13 893.776ZM1383.95 887L1384.43 902.18H1386.29L1386.71 887H1383.95ZM1385.36 908.15C1386.35 908.15 1387.13 907.34 1387.13 906.38C1387.13 905.36 1386.35 904.58 1385.36 904.58C1384.37 904.58 1383.56 905.36 1383.56 906.38C1383.56 907.34 1384.37 908.15 1385.36 908.15Z" fill="#D8D8D8"/>
</svg>
