<svg width="1440" height="1024" viewBox="0 0 1440 1024" fill="none" xmlns="http://www.w3.org/2000/svg">
<rect width="1440" height="1024" fill="white"/>
<path d="M215.238 245.311L214.74 243.875C210.561 239.578 205.619 236.307 199.916 234.061L202.23 229.256C205.863 230.799 209.252 232.791 212.396 235.232C215.541 237.654 218.178 240.291 220.307 243.143L220.98 244.695C224.301 249.344 225.961 254.49 225.961 260.135C225.961 264.119 224.945 267.225 222.914 269.451C220.902 271.658 218.031 272.762 214.301 272.762C211.84 272.762 209.711 272.186 207.914 271.033C206.117 269.861 203.93 267.527 201.352 264.031C199.926 262.117 198.871 260.877 198.188 260.311C197.523 259.725 196.742 259.432 195.844 259.432C194.926 259.432 194.164 259.803 193.559 260.545C192.973 261.287 192.68 262.244 192.68 263.416C192.68 264.725 192.895 265.994 193.324 267.225C193.773 268.436 194.506 269.744 195.521 271.15L190.658 272.791C189.643 271.15 188.9 269.588 188.432 268.104C187.982 266.619 187.758 265.066 187.758 263.445C187.758 260.984 188.52 258.934 190.043 257.293C191.586 255.652 193.529 254.832 195.873 254.832C197.24 254.832 198.422 255.047 199.418 255.477C200.434 255.906 201.342 256.502 202.143 257.264C202.943 258.025 204.115 259.441 205.658 261.512C207.064 263.426 208.188 264.793 209.027 265.613C209.867 266.434 210.727 267.049 211.605 267.459C212.504 267.85 213.52 268.045 214.652 268.045C216.762 268.045 218.344 267.391 219.398 266.082C220.453 264.773 220.98 262.801 220.98 260.164C220.98 254.949 219.066 249.998 215.238 245.311ZM235.102 242.029C237.387 242.029 239.213 242.156 240.58 242.41C241.967 242.645 243.217 243.123 244.33 243.846C245.443 244.568 246.303 245.516 246.908 246.688C247.514 247.84 247.816 249.275 247.816 250.994C247.816 253.396 247.045 255.311 245.502 256.736C243.979 258.162 241.928 258.875 239.35 258.875C236.791 258.875 234.779 258.162 233.314 256.736C231.85 255.291 231.117 253.504 231.117 251.375C231.117 249.637 231.547 248.025 232.406 246.541H191.83V242.029H235.102ZM237.035 246.541C236.02 247.889 235.512 249.344 235.512 250.906C235.512 252.117 235.873 253.094 236.596 253.836C237.338 254.559 238.324 254.92 239.555 254.92C240.766 254.92 241.713 254.568 242.396 253.865C243.08 253.162 243.422 252.225 243.422 251.053C243.422 249.529 242.973 248.396 242.074 247.654C241.176 246.912 239.76 246.541 237.826 246.541H237.035ZM267.006 257.322C267.65 256.385 268.09 255.545 268.324 254.803C268.578 254.061 268.705 253.26 268.705 252.4C268.705 250.545 268.109 249.07 266.918 247.977C265.727 246.863 264.057 246.307 261.908 246.307C259.857 246.307 258.227 246.834 257.016 247.889C255.824 248.924 255.229 250.301 255.229 252.02C255.229 253.074 255.521 254.148 256.107 255.242C256.713 256.336 257.631 257.469 258.861 258.641C260.092 259.812 262.064 261.443 264.779 263.533C269.057 266.814 272.025 269.783 273.686 272.439C275.346 275.115 276.176 278.182 276.176 281.639C276.176 284.861 275.209 287.43 273.275 289.344C271.361 291.258 268.744 292.215 265.424 292.215C263.705 292.215 262.152 291.883 260.766 291.219C259.379 290.555 258.012 289.52 256.664 288.113C255.453 289.695 254.281 290.77 253.148 291.336C252.016 291.922 250.639 292.215 249.018 292.215C246.654 292.215 244.799 291.521 243.451 290.135C242.084 288.768 241.4 286.971 241.4 284.744C241.4 282.713 242.113 281.014 243.539 279.646C244.945 278.279 246.693 277.596 248.783 277.596C250.346 277.596 251.762 277.918 253.031 278.562C254.32 279.227 255.951 280.711 257.924 283.016C259.838 285.242 261.303 286.619 262.318 287.146C263.334 287.674 264.477 287.938 265.746 287.938C267.523 287.938 268.891 287.361 269.848 286.209C270.824 285.076 271.312 283.514 271.312 281.521C271.312 279.666 270.961 278.016 270.258 276.57C269.555 275.125 268.422 273.602 266.859 272C265.297 270.379 262.963 268.357 259.857 265.936C256.342 263.221 253.9 260.809 252.533 258.699C251.166 256.59 250.482 254.354 250.482 251.99C250.482 249.139 251.547 246.766 253.676 244.871C255.824 242.977 258.607 242.029 262.025 242.029C265.639 242.029 268.441 242.957 270.434 244.812C272.445 246.668 273.451 249.061 273.451 251.99C273.451 254.646 272.553 257.205 270.756 259.666L267.006 257.322ZM253.939 284.891C253.041 283.777 252.25 282.967 251.566 282.459C250.902 281.951 250.053 281.697 249.018 281.697C248.119 281.697 247.377 281.99 246.791 282.576C246.186 283.162 245.883 283.934 245.883 284.891C245.883 285.926 246.186 286.736 246.791 287.322C247.377 287.908 248.188 288.201 249.223 288.201C250.18 288.201 251.029 287.938 251.771 287.41C252.533 286.902 253.256 286.062 253.939 284.891ZM299.057 270.271C300.99 267.537 302.25 265.232 302.836 263.357C303.441 261.463 303.744 259.471 303.744 257.381C303.744 253.865 302.875 251.18 301.137 249.324C299.398 247.469 296.85 246.541 293.49 246.541C290.424 246.541 288.002 247.498 286.225 249.412C284.447 251.326 283.559 253.963 283.559 257.322C283.559 259.627 283.92 261.805 284.643 263.855C285.385 265.906 286.586 268.045 288.246 270.271L283.236 272.469C280.131 267.625 278.578 262.576 278.578 257.322C278.578 254.412 279.203 251.775 280.453 249.412C281.703 247.029 283.48 245.203 285.785 243.934C288.109 242.664 290.795 242.029 293.842 242.029C298.51 242.029 302.152 243.338 304.77 245.955C307.406 248.553 308.725 252.127 308.725 256.678C308.725 259.471 308.383 262.098 307.699 264.559C307.016 267.02 305.795 269.656 304.037 272.469L299.057 270.271ZM288.48 236.521C288.871 238.025 289.252 239.168 289.623 239.949C289.994 240.73 290.385 241.277 290.795 241.59C291.225 241.883 291.752 242.029 292.377 242.029C293.158 242.029 293.9 241.785 294.604 241.297C295.307 240.809 296.303 239.734 297.592 238.074L299.438 235.672C301.508 232.957 303.393 231.092 305.092 230.076C306.791 229.041 308.9 228.514 311.42 228.494L311.742 233.123C310.355 233.201 309.232 233.406 308.373 233.738C307.514 234.07 306.713 234.559 305.971 235.203C305.248 235.828 304.242 236.971 302.953 238.631L301.576 240.418C299.936 242.547 298.383 244.1 296.918 245.076C295.473 246.053 293.842 246.541 292.025 246.541C289.74 246.541 287.924 245.809 286.576 244.344C285.248 242.859 284.223 240.789 283.5 238.133L288.48 236.521ZM318.012 260.252C318.852 262.771 320.688 264.705 323.52 266.053C326.371 267.381 330.023 268.045 334.477 268.045C339.34 268.045 343.188 267.264 346.02 265.701C348.852 264.119 350.59 261.824 351.234 258.816C349.496 260.438 347.387 261.248 344.906 261.248C342.543 261.248 340.629 260.584 339.164 259.256C337.719 257.908 336.996 256.121 336.996 253.895C336.996 252.215 337.533 250.74 338.607 249.471C339.682 248.182 341.127 247.361 342.943 247.01C341.381 246.6 339.359 246.395 336.879 246.395L338.227 242C344.047 242.82 348.412 244.52 351.322 247.098C354.252 249.656 355.717 253.094 355.717 257.41C355.717 262.156 353.91 265.906 350.297 268.66C346.703 271.395 341.537 272.762 334.799 272.762C327.963 272.762 322.67 271.414 318.92 268.719C315.17 266.004 313.295 262.352 313.295 257.762C313.295 254.266 314.32 251.404 316.371 249.178C318.422 246.932 321.049 245.809 324.252 245.809C326.732 245.809 328.686 246.482 330.111 247.83C331.557 249.178 332.279 250.965 332.279 253.191C332.279 255.672 331.43 257.635 329.73 259.08C328.051 260.525 325.736 261.248 322.787 261.248C320.951 261.248 319.359 260.916 318.012 260.252ZM317.719 255.857C319.008 256.658 320.453 257.059 322.055 257.059C325.688 257.059 327.504 255.779 327.504 253.221C327.504 252.186 327.191 251.404 326.566 250.877C325.941 250.33 325.072 250.057 323.959 250.057C322.357 250.057 321 250.564 319.887 251.58C318.793 252.596 318.07 254.021 317.719 255.857ZM350.971 253.396C350.424 252.342 349.691 251.521 348.773 250.936C347.855 250.35 346.84 250.057 345.727 250.057C344.555 250.057 343.598 250.369 342.855 250.994C342.113 251.6 341.742 252.459 341.742 253.572C341.742 254.646 342.084 255.496 342.768 256.121C343.471 256.746 344.447 257.059 345.697 257.059C346.967 257.059 348.07 256.736 349.008 256.092C349.945 255.447 350.6 254.549 350.971 253.396ZM333.598 236.521C333.988 238.025 334.369 239.168 334.74 239.949C335.111 240.73 335.502 241.277 335.912 241.59C336.342 241.883 336.869 242.029 337.494 242.029C338.275 242.029 339.018 241.785 339.721 241.297C340.424 240.809 341.42 239.734 342.709 238.074L344.555 235.672C346.625 232.957 348.51 231.092 350.209 230.076C351.908 229.041 354.018 228.514 356.537 228.494L356.859 233.123C355.473 233.201 354.35 233.406 353.49 233.738C352.631 234.07 351.83 234.559 351.088 235.203C350.365 235.828 349.359 236.971 348.07 238.631L346.693 240.418C345.053 242.547 343.5 244.1 342.035 245.076C340.59 246.053 338.959 246.541 337.143 246.541C334.857 246.541 333.041 245.809 331.693 244.344C330.365 242.859 329.34 240.789 328.617 238.133L333.598 236.521ZM373.031 246.336C375.551 246.336 377.826 246.902 379.857 248.035C381.889 249.168 383.461 250.76 384.574 252.811C385.707 254.842 386.273 257.098 386.273 259.578C386.273 263.445 385.043 266.609 382.582 269.07C380.141 271.531 376.957 272.762 373.031 272.762C370.531 272.762 368.266 272.215 366.234 271.121C364.223 270.027 362.65 268.455 361.518 266.404C360.385 264.354 359.818 262.078 359.818 259.578C359.818 257.098 360.385 254.842 361.518 252.811C362.65 250.779 364.223 249.197 366.234 248.064C368.246 246.912 370.512 246.336 373.031 246.336ZM373.031 268.045C375.629 268.045 377.66 267.264 379.125 265.701C380.609 264.139 381.352 262.088 381.352 259.549C381.352 257.049 380.59 255.008 379.066 253.426C377.562 251.844 375.551 251.053 373.031 251.053C370.531 251.053 368.529 251.844 367.025 253.426C365.521 254.988 364.77 257.029 364.77 259.549C364.77 262.068 365.502 264.119 366.967 265.701C368.432 267.264 370.453 268.045 373.031 268.045Z" fill="#D8D8D8"/>
<path d="M468.98 437.7C467.06 437.7 465.44 439.32 465.44 441.24C465.44 443.28 467.06 444.84 468.98 444.84C470.96 444.84 472.64 443.28 472.64 441.24C472.64 439.32 470.96 437.7 468.98 437.7ZM471.8 480L470.84 449.64H467.18L466.28 480H471.8ZM508.255 426V444.3H487.735V426H482.275V468H487.735V449.22H508.255V468H513.655V426H508.255ZM536.602 468.6C545.302 468.6 551.722 462 551.722 453C551.722 444.06 545.242 437.4 536.602 437.4C527.842 437.4 521.542 444 521.542 453C521.542 461.88 527.962 468.6 536.602 468.6ZM536.602 463.98C530.722 463.98 526.822 458.94 526.822 453C526.822 447 530.662 442.02 536.602 442.02C542.482 442.02 546.502 447 546.502 453C546.502 458.94 542.482 463.98 536.602 463.98ZM558.716 468H563.936V425.4H558.716V468ZM597.682 463.92C596.122 463.92 595.342 463.2 595.342 461.46V448.44C595.342 441.18 590.542 437.4 583.822 437.4C576.922 437.4 572.722 441.66 572.122 447.42H577.342C577.942 444.18 579.742 441.72 583.822 441.72C587.842 441.72 590.062 444.24 590.062 448.32V450L581.122 450.84C575.242 451.44 570.922 454.38 570.922 460.02C570.922 465.9 575.242 468.6 580.822 468.6C585.262 468.6 588.622 466.86 590.722 464.16C591.382 467.04 593.242 468 596.062 468H598.462V463.92H597.682ZM590.062 456.48C590.062 462.3 585.502 464.4 581.542 464.4C578.662 464.4 576.202 463.2 576.202 459.84C576.202 456.66 578.902 454.92 582.802 454.56L590.062 453.84V456.48ZM605.497 426L606.457 456.36H610.177L611.017 426H605.497ZM608.317 468.3C610.297 468.3 611.857 466.68 611.857 464.76C611.857 462.72 610.297 461.16 608.317 461.16C606.337 461.16 604.717 462.72 604.717 464.76C604.717 466.68 606.337 468.3 608.317 468.3Z" fill="#D8D8D8"/>
<path d="M943.94 280.72C941.82 280.72 939.88 280.2 938.12 279.16C936.36 278.08 934.96 276.42 933.92 274.18C932.92 271.94 932.42 269.02 932.42 265.42C932.42 261.14 933.26 257.56 934.94 254.68C936.66 251.8 938.92 249.64 941.72 248.2C944.52 246.76 947.56 246.04 950.84 246.04C954.92 246.04 958.22 246.82 960.74 248.38C963.26 249.94 965.1 252.02 966.26 254.62C967.46 257.18 968.06 260.04 968.06 263.2C968.06 265.76 967.78 268.04 967.22 270.04C966.66 272.04 965.98 273.92 965.18 275.68H981.2V246.76H986.36V280H959.9L959.66 276.22C960.58 274.82 961.32 273.1 961.88 271.06C962.48 268.98 962.78 266.58 962.78 263.86C962.78 259.58 961.68 256.28 959.48 253.96C957.28 251.64 954.32 250.48 950.6 250.48C946.92 250.48 943.92 251.62 941.6 253.9C939.32 256.14 937.92 259.04 937.4 262.6C938.44 261.92 939.58 261.38 940.82 260.98C942.06 260.54 943.34 260.32 944.66 260.32C947.54 260.32 949.86 261.2 951.62 262.96C953.42 264.72 954.32 267.1 954.32 270.1C954.32 273.42 953.38 276.02 951.5 277.9C949.66 279.78 947.14 280.72 943.94 280.72ZM943.82 264.52C942.62 264.52 941.46 264.78 940.34 265.3C939.22 265.78 938.18 266.44 937.22 267.28C937.38 270.72 938.12 273.14 939.44 274.54C940.76 275.94 942.34 276.64 944.18 276.64C945.74 276.64 947 276.14 947.96 275.14C948.92 274.1 949.4 272.62 949.4 270.7C949.4 268.7 948.88 267.18 947.84 266.14C946.8 265.06 945.46 264.52 943.82 264.52ZM1006.58 280.72C1004.46 280.72 1002.52 280.2 1000.76 279.16C998.997 278.08 997.597 276.42 996.557 274.18C995.557 271.94 995.057 269.02 995.057 265.42C995.057 261.46 995.917 258.04 997.637 255.16C999.397 252.24 1001.86 250 1005.02 248.44C1008.18 246.84 1011.88 246.04 1016.12 246.04C1018.88 246.04 1021.44 246.36 1023.8 247C1026.2 247.6 1028.52 248.58 1030.76 249.94C1034.4 247.34 1038.68 246.04 1043.6 246.04C1046.16 246.04 1048.46 246.36 1050.5 247C1052.54 247.64 1054.46 248.6 1056.26 249.88C1057.38 249.24 1058.6 248.7 1059.92 248.26C1061.28 247.78 1062.88 247.42 1064.72 247.18C1066.6 246.9 1068.9 246.76 1071.62 246.76H1089.5V251.08H1079.3V280H1074.14V251.08H1070.24C1068.12 251.08 1066.22 251.2 1064.54 251.44C1062.9 251.64 1061.3 252.12 1059.74 252.88C1061.7 254.84 1063.24 257.16 1064.36 259.84C1065.48 262.52 1066.04 265.46 1066.04 268.66C1066.04 272.66 1065.16 275.68 1063.4 277.72C1061.68 279.72 1059.3 280.72 1056.26 280.72C1053.98 280.72 1052.1 280.2 1050.62 279.16C1049.18 278.12 1048.1 276.72 1047.38 274.96C1046.7 273.16 1046.36 271.12 1046.36 268.84C1046.36 265.8 1046.84 262.96 1047.8 260.32C1048.76 257.64 1050.36 255.12 1052.6 252.76C1051.16 251.92 1049.68 251.32 1048.16 250.96C1046.68 250.6 1045.2 250.42 1043.72 250.42C1041.92 250.42 1040.24 250.6 1038.68 250.96C1037.12 251.28 1035.6 251.88 1034.12 252.76C1036.32 254.8 1038.04 257.16 1039.28 259.84C1040.52 262.48 1041.14 265.42 1041.14 268.66C1041.14 272.66 1040.26 275.68 1038.5 277.72C1036.78 279.72 1034.42 280.72 1031.42 280.72C1029.1 280.72 1027.2 280.2 1025.72 279.16C1024.28 278.12 1023.2 276.72 1022.48 274.96C1021.8 273.16 1021.46 271.12 1021.46 268.84C1021.46 265.68 1021.94 262.74 1022.9 260.02C1023.86 257.3 1025.3 254.96 1027.22 253C1025.5 252.08 1023.66 251.44 1021.7 251.08C1019.74 250.68 1017.68 250.48 1015.52 250.48C1011.12 250.48 1007.6 251.62 1004.96 253.9C1002.32 256.14 1000.68 259.04 1000.04 262.6C1001.08 261.88 1002.22 261.32 1003.46 260.92C1004.7 260.52 1005.98 260.32 1007.3 260.32C1010.18 260.32 1012.5 261.2 1014.26 262.96C1016.06 264.72 1016.96 267.1 1016.96 270.1C1016.96 273.42 1016.02 276.02 1014.14 277.9C1012.3 279.78 1009.78 280.72 1006.58 280.72ZM1051.4 268.66C1051.4 271.42 1051.82 273.44 1052.66 274.72C1053.5 276 1054.64 276.64 1056.08 276.64C1057.36 276.64 1058.34 276.26 1059.02 275.5C1059.74 274.74 1060.24 273.78 1060.52 272.62C1060.8 271.46 1060.94 270.28 1060.94 269.08C1060.94 266.16 1060.44 263.52 1059.44 261.16C1058.48 258.76 1057.3 256.84 1055.9 255.4C1054.42 256.84 1053.3 258.76 1052.54 261.16C1051.78 263.52 1051.4 266.02 1051.4 268.66ZM1026.5 268.66C1026.5 271.42 1026.92 273.44 1027.76 274.72C1028.6 276 1029.76 276.64 1031.24 276.64C1032.48 276.64 1033.44 276.26 1034.12 275.5C1034.84 274.74 1035.34 273.78 1035.62 272.62C1035.9 271.46 1036.04 270.28 1036.04 269.08C1036.04 266.32 1035.58 263.82 1034.66 261.58C1033.74 259.3 1032.4 257.3 1030.64 255.58C1029.12 257.3 1028.04 259.34 1027.4 261.7C1026.8 264.02 1026.5 266.34 1026.5 268.66ZM1006.46 264.52C1005.22 264.52 1004.04 264.78 1002.92 265.3C1001.84 265.78 1000.8 266.44 999.797 267.28C999.997 270.72 1000.74 273.14 1002.02 274.54C1003.34 275.94 1004.94 276.64 1006.82 276.64C1008.46 276.64 1009.74 276.14 1010.66 275.14C1011.58 274.1 1012.04 272.62 1012.04 270.7C1012.04 268.7 1011.52 267.18 1010.48 266.14C1009.44 265.06 1008.1 264.52 1006.46 264.52ZM1103.51 280.72C1101.11 280.72 1098.95 280.34 1097.03 279.58C1095.11 278.82 1093.59 277.7 1092.47 276.22C1091.35 274.74 1090.79 272.96 1090.79 270.88C1090.79 268.8 1091.31 266.98 1092.35 265.42C1093.43 263.86 1095.13 262.66 1097.45 261.82V246.76H1128.83V251.08H1117.61V260.32H1118.57C1121.69 260.32 1124.21 260.56 1126.13 261.04C1128.05 261.48 1129.69 262.22 1131.05 263.26C1132.09 264.06 1132.91 265.12 1133.51 266.44C1134.11 267.72 1134.41 269.2 1134.41 270.88C1134.41 273.92 1133.49 276.28 1131.65 277.96C1129.85 279.64 1127.29 280.48 1123.97 280.48C1123.05 280.48 1122.05 280.42 1120.97 280.3C1119.89 280.18 1118.89 279.98 1117.97 279.7L1119.11 275.68C1120.43 276.08 1121.89 276.28 1123.49 276.28C1127.33 276.28 1129.25 274.4 1129.25 270.64C1129.25 268.8 1128.73 267.46 1127.69 266.62C1126.69 265.74 1125.41 265.18 1123.85 264.94C1122.29 264.66 1120.67 264.52 1118.99 264.52H1117.61V266.44C1117.61 269.12 1117.37 271.22 1116.89 272.74C1116.45 274.26 1115.81 275.54 1114.97 276.58C1113.73 278.1 1112.13 279.18 1110.17 279.82C1108.25 280.42 1106.03 280.72 1103.51 280.72ZM1102.19 251.08V260.68C1103.87 260.44 1105.73 260.32 1107.77 260.32H1112.51V251.08H1102.19ZM1095.95 270.82C1095.95 272.66 1096.71 274.06 1098.23 275.02C1099.75 275.94 1101.67 276.4 1103.99 276.4C1105.75 276.4 1107.25 276.14 1108.49 275.62C1109.77 275.06 1110.75 274.12 1111.43 272.8C1112.15 271.48 1112.51 269.62 1112.51 267.22V264.52H1107.35C1105.31 264.52 1103.57 264.64 1102.13 264.88C1100.73 265.12 1099.53 265.52 1098.53 266.08C1096.81 267.08 1095.95 268.66 1095.95 270.82ZM1113.77 239.32C1112.61 239.32 1111.65 238.96 1110.89 238.24C1110.13 237.48 1109.75 236.5 1109.75 235.3C1109.75 234.14 1110.13 233.18 1110.89 232.42C1111.65 231.66 1112.61 231.28 1113.77 231.28C1114.93 231.28 1115.89 231.66 1116.65 232.42C1117.41 233.18 1117.79 234.14 1117.79 235.3C1117.79 236.5 1117.41 237.48 1116.65 238.24C1115.89 238.96 1114.93 239.32 1113.77 239.32ZM1153.02 280.72C1150.62 280.72 1148.46 280.34 1146.54 279.58C1144.62 278.82 1143.1 277.7 1141.98 276.22C1140.86 274.74 1140.3 272.96 1140.3 270.88C1140.3 268.8 1140.82 266.98 1141.86 265.42C1142.94 263.86 1144.64 262.66 1146.96 261.82V246.76H1178.34V251.08H1167.12V260.32H1168.08C1171.2 260.32 1173.72 260.56 1175.64 261.04C1177.56 261.48 1179.2 262.22 1180.56 263.26C1181.6 264.06 1182.42 265.12 1183.02 266.44C1183.62 267.72 1183.92 269.2 1183.92 270.88C1183.92 273.92 1183 276.28 1181.16 277.96C1179.36 279.64 1176.8 280.48 1173.48 280.48C1172.56 280.48 1171.56 280.42 1170.48 280.3C1169.4 280.18 1168.4 279.98 1167.48 279.7L1168.62 275.68C1169.94 276.08 1171.4 276.28 1173 276.28C1176.84 276.28 1178.76 274.4 1178.76 270.64C1178.76 268.8 1178.24 267.46 1177.2 266.62C1176.2 265.74 1174.92 265.18 1173.36 264.94C1171.8 264.66 1170.18 264.52 1168.5 264.52H1167.12V266.44C1167.12 269.12 1166.88 271.22 1166.4 272.74C1165.96 274.26 1165.32 275.54 1164.48 276.58C1163.24 278.1 1161.64 279.18 1159.68 279.82C1157.76 280.42 1155.54 280.72 1153.02 280.72ZM1151.7 251.08V260.68C1153.38 260.44 1155.24 260.32 1157.28 260.32H1162.02V251.08H1151.7ZM1145.46 270.82C1145.46 272.66 1146.22 274.06 1147.74 275.02C1149.26 275.94 1151.18 276.4 1153.5 276.4C1155.26 276.4 1156.76 276.14 1158 275.62C1159.28 275.06 1160.26 274.12 1160.94 272.8C1161.66 271.48 1162.02 269.62 1162.02 267.22V264.52H1156.86C1154.82 264.52 1153.08 264.64 1151.64 264.88C1150.24 265.12 1149.04 265.52 1148.04 266.08C1146.32 267.08 1145.46 268.66 1145.46 270.82ZM1221.67 246.04C1224.67 246.04 1227.13 246.82 1229.05 248.38C1230.97 249.9 1232.39 252.04 1233.31 254.8C1234.23 257.52 1234.69 260.68 1234.69 264.28C1234.69 267.08 1234.39 269.48 1233.79 271.48C1233.19 273.48 1232.23 275.12 1230.91 276.4C1229.51 277.76 1227.79 278.7 1225.75 279.22C1223.75 279.74 1221.03 280 1217.59 280H1192.15V246.76H1197.31V275.68H1210.87V258.7C1210.87 256.22 1211.09 254.26 1211.53 252.82C1212.01 251.34 1212.69 250.1 1213.57 249.1C1214.49 248.1 1215.59 247.34 1216.87 246.82C1218.15 246.3 1219.75 246.04 1221.67 246.04ZM1221.55 250.36C1220.87 250.36 1220.21 250.48 1219.57 250.72C1218.93 250.92 1218.39 251.26 1217.95 251.74C1217.31 252.46 1216.83 253.36 1216.51 254.44C1216.19 255.48 1216.03 257.24 1216.03 259.72V275.68H1218.85C1221.57 275.68 1223.69 275.3 1225.21 274.54C1226.73 273.78 1227.81 272.54 1228.45 270.82C1229.09 269.1 1229.41 266.82 1229.41 263.98C1229.41 261.42 1229.13 259.12 1228.57 257.08C1228.05 255.04 1227.21 253.42 1226.05 252.22C1224.93 250.98 1223.43 250.36 1221.55 250.36ZM1212.67 239.32C1211.51 239.32 1210.55 238.96 1209.79 238.24C1209.03 237.48 1208.65 236.5 1208.65 235.3C1208.65 234.14 1209.03 233.18 1209.79 232.42C1210.55 231.66 1211.51 231.28 1212.67 231.28C1213.83 231.28 1214.79 231.66 1215.55 232.42C1216.31 233.18 1216.69 234.14 1216.69 235.3C1216.69 236.5 1216.31 237.48 1215.55 238.24C1214.79 238.96 1213.83 239.32 1212.67 239.32ZM1248.54 267.959H1243.65L1243.27 237.344H1248.95L1248.54 267.959ZM1243.06 277.275C1243.06 276.396 1243.33 275.664 1243.85 275.078C1244.4 274.473 1245.2 274.17 1246.26 274.17C1247.31 274.17 1248.11 274.473 1248.66 275.078C1249.21 275.664 1249.48 276.396 1249.48 277.275C1249.48 278.154 1249.21 278.887 1248.66 279.473C1248.11 280.039 1247.31 280.322 1246.26 280.322C1245.2 280.322 1244.4 280.039 1243.85 279.473C1243.33 278.887 1243.06 278.154 1243.06 277.275Z" fill="#D8D8D8"/>
<path d="M835 601.22H829.24C827.62 606.14 823.18 609.56 816.88 609.56C808.36 609.56 802.48 602.6 802.48 593.18C802.48 584 808.12 576.44 816.94 576.44C823 576.44 827.14 579.92 828.58 585.14H834.34C832.84 576.44 825.82 571.4 816.88 571.4C804.88 571.4 796.96 580.7 796.96 593.18C796.96 605.6 804.82 614.6 816.88 614.6C826.18 614.6 833.44 609.32 835 601.22ZM844.371 579.2C846.231 579.2 847.791 577.64 847.791 575.72C847.791 573.8 846.231 572.3 844.371 572.3C842.451 572.3 840.831 573.8 840.831 575.72C840.831 577.64 842.451 579.2 844.371 579.2ZM841.731 614H846.951V584H841.731V614ZM880.698 609.92C879.138 609.92 878.358 609.2 878.358 607.46V594.44C878.358 587.18 873.558 583.4 866.838 583.4C859.938 583.4 855.738 587.66 855.138 593.42H860.358C860.958 590.18 862.758 587.72 866.838 587.72C870.858 587.72 873.078 590.24 873.078 594.32V596L864.138 596.84C858.258 597.44 853.938 600.38 853.938 606.02C853.938 611.9 858.258 614.6 863.838 614.6C868.278 614.6 871.638 612.86 873.738 610.16C874.398 613.04 876.258 614 879.078 614H881.478V609.92H880.698ZM873.078 602.48C873.078 608.3 868.518 610.4 864.558 610.4C861.678 610.4 859.218 609.2 859.218 605.84C859.218 602.66 861.918 600.92 865.818 600.56L873.078 599.84V602.48ZM900.535 614.6C909.235 614.6 915.655 608 915.655 599C915.655 590.06 909.175 583.4 900.535 583.4C891.775 583.4 885.475 590 885.475 599C885.475 607.88 891.895 614.6 900.535 614.6ZM900.535 609.98C894.655 609.98 890.755 604.94 890.755 599C890.755 593 894.595 588.02 900.535 588.02C906.415 588.02 910.435 593 910.435 599C910.435 604.94 906.415 609.98 900.535 609.98ZM923.845 572L924.805 602.36H928.525L929.365 572H923.845ZM926.665 614.3C928.645 614.3 930.205 612.68 930.205 610.76C930.205 608.72 928.645 607.16 926.665 607.16C924.685 607.16 923.065 608.72 923.065 610.76C923.065 612.68 924.685 614.3 926.665 614.3Z" fill="#D8D8D8"/>
<path d="M1118 503.953V499.676H1152.16V503.953H1145.92V537H1141.09V519.129H1130.28V522.352C1130.28 523.426 1130 524.256 1129.46 524.842C1128.93 525.408 1128.18 525.691 1127.2 525.691C1126.26 525.691 1125.24 525.281 1124.12 524.461C1123.01 523.621 1122.08 522.586 1121.34 521.355C1120.6 520.125 1120.23 518.982 1120.23 517.928C1120.23 515.877 1121.44 514.852 1123.86 514.852H1141.09V503.953H1118ZM1188.02 503.953H1181.78V537H1176.95V522.029H1163.7V524.197C1163.7 525.369 1163.44 526.287 1162.91 526.951C1162.38 527.615 1161.68 527.947 1160.8 527.947C1159.87 527.947 1158.83 527.547 1157.7 526.746C1156.56 525.926 1155.6 524.9 1154.8 523.67C1154.02 522.42 1153.62 521.307 1153.62 520.33C1153.62 519.49 1153.94 518.855 1154.56 518.426C1155.19 517.977 1156.1 517.752 1157.29 517.752H1158.9V503.953H1151.28V499.676H1188.02V503.953ZM1176.95 517.752V503.953H1163.7V517.752H1176.95ZM1209.99 521.443C1205.68 521.443 1202.4 521.014 1200.18 520.154C1199.3 520.799 1198.3 521.355 1197.19 521.824C1198.83 523.934 1200.75 526.082 1202.96 528.27C1205.17 530.457 1207.49 532.537 1209.93 534.51L1206.71 537.732C1204.48 535.799 1202.29 533.738 1200.12 531.551C1197.95 529.344 1196.04 527.254 1194.38 525.281C1192.72 523.309 1191.5 521.678 1190.71 520.389C1190.25 519.588 1189.92 518.914 1189.75 518.367C1189.59 517.82 1189.51 517.234 1189.51 516.609C1189.51 516.082 1189.64 515.584 1189.89 515.115C1190.17 514.627 1190.59 514.227 1191.15 513.914C1191.74 513.602 1192.47 513.445 1193.35 513.445C1194.35 513.445 1195.22 513.68 1195.96 514.148C1196.72 514.598 1197.4 515.232 1198.01 516.053C1198.71 515.428 1199.25 514.559 1199.62 513.445C1199.99 512.332 1200.18 511.023 1200.18 509.52C1200.18 508.328 1200.08 507.254 1199.88 506.297C1199.69 505.32 1199.46 504.539 1199.18 503.953H1187.14V499.676H1211.34V503.953H1204.02C1204.68 505.496 1205.01 507.361 1205.01 509.549C1205.01 512.693 1204.31 515.164 1202.9 516.961C1204 517.098 1205.7 517.166 1208 517.166H1216.06V521.443H1209.99ZM1234.46 517.312H1227.92C1225.4 517.312 1223.51 517.449 1222.24 517.723C1220.99 517.977 1219.97 518.504 1219.19 519.305C1218.41 520.105 1218.02 521.258 1218.02 522.762C1218.02 524.031 1218.32 525.262 1218.93 526.453C1219.55 527.645 1220.48 528.885 1221.71 530.174C1222.94 531.443 1224.6 532.918 1226.69 534.598L1223.47 537.732C1220.68 535.33 1218.62 533.377 1217.32 531.873C1216.03 530.35 1215.01 528.816 1214.27 527.273C1213.55 525.73 1213.19 524.129 1213.19 522.469C1213.19 521.16 1213.45 519.91 1213.98 518.719C1214.52 517.508 1215.37 516.453 1216.53 515.555C1217.68 514.656 1219.06 514.012 1220.69 513.621C1222.33 513.23 1224.37 513.035 1226.81 513.035H1234.46V503.953H1210.46V499.676H1245.53V503.953H1239.29V537H1234.46V517.312ZM1234.51 500.115C1233.65 496.834 1232.82 494.324 1232.02 492.586C1231.2 490.828 1230.3 489.568 1229.33 488.807C1228.35 488.025 1227.16 487.635 1225.75 487.635C1225.07 487.635 1224.42 487.693 1223.79 487.811C1223.17 487.908 1222.43 488.123 1221.59 488.455L1220.13 484.09C1221.01 483.777 1221.89 483.553 1222.77 483.416C1223.62 483.279 1224.56 483.211 1225.58 483.211C1227.28 483.211 1228.76 483.504 1230.03 484.09C1231.28 484.656 1232.42 485.574 1233.46 486.844C1234.47 488.094 1235.44 489.803 1236.36 491.971C1237.28 494.139 1238.18 496.854 1239.05 500.115H1234.51Z" fill="#D8D8D8"/>
<path d="M438.143 763.188C438.143 765.961 437.254 768.236 435.477 770.014C433.699 771.771 431.209 772.895 428.006 773.383V773.617C431.639 774.105 434.383 775.229 436.238 776.986C438.113 778.744 439.051 781.039 439.051 783.871C439.051 787.875 437.537 791 434.51 793.246C431.482 795.473 427.234 796.586 421.766 796.586C416.629 796.586 412.469 795.814 409.285 794.271V789.35C411.219 790.268 413.289 790.971 415.496 791.459C417.723 791.928 419.793 792.162 421.707 792.162C425.574 792.162 428.484 791.449 430.438 790.023C432.41 788.598 433.396 786.547 433.396 783.871C433.396 781.312 432.293 779.379 430.086 778.07C427.879 776.742 424.588 776.078 420.213 776.078H414.09V771.566H419.891C424.129 771.566 427.293 770.863 429.383 769.457C431.492 768.031 432.547 766.117 432.547 763.715C432.547 761.645 431.766 760.014 430.203 758.822C428.66 757.611 426.57 757.006 423.934 757.006C421.707 757.006 419.695 757.27 417.898 757.797C416.121 758.324 414.168 759.281 412.039 760.668L409.461 757.006C413.582 754.037 418.426 752.553 423.992 752.553C428.387 752.553 431.844 753.51 434.363 755.424C436.883 757.338 438.143 759.926 438.143 763.188ZM475.936 807.162H470.838V796H448.455V807.162H443.416V791.547H445.994C448.592 787.934 450.613 783.754 452.059 779.008C453.504 774.242 454.266 769.184 454.344 763.832H471.248V791.547H475.936V807.162ZM466.15 791.547V767.992H459.002C458.709 772.309 457.869 776.645 456.482 781C455.115 785.336 453.436 788.852 451.443 791.547H466.15ZM497.469 796.586C493.152 796.586 489.832 795.033 487.508 791.928H487.156L487.273 793.129C487.43 794.652 487.508 796.01 487.508 797.201V810.414H482.234V763.832H486.57L487.273 768.227H487.508C488.758 766.469 490.203 765.199 491.844 764.418C493.484 763.637 495.379 763.246 497.527 763.246C501.707 763.246 504.949 764.701 507.254 767.611C509.578 770.502 510.74 774.584 510.74 779.857C510.74 785.111 509.578 789.213 507.254 792.162C504.93 795.111 501.668 796.586 497.469 796.586ZM496.59 767.67C493.406 767.67 491.102 768.568 489.676 770.365C488.27 772.162 487.547 774.984 487.508 778.832V779.857C487.508 784.213 488.23 787.367 489.676 789.32C491.121 791.254 493.465 792.221 496.707 792.221C499.402 792.221 501.502 791.127 503.006 788.939C504.529 786.752 505.291 783.705 505.291 779.799C505.291 775.873 504.529 772.875 503.006 770.805C501.502 768.715 499.363 767.67 496.59 767.67ZM539.012 796L537.986 791.43H537.752C536.15 793.441 534.549 794.809 532.947 795.531C531.365 796.234 529.363 796.586 526.941 796.586C523.777 796.586 521.297 795.756 519.5 794.096C517.703 792.436 516.805 790.092 516.805 787.064C516.805 780.541 521.951 777.123 532.244 776.811L537.693 776.605V774.701C537.693 772.26 537.166 770.463 536.111 769.311C535.057 768.139 533.367 767.553 531.043 767.553C529.344 767.553 527.732 767.807 526.209 768.314C524.705 768.822 523.289 769.389 521.961 770.014L520.35 766.059C521.971 765.199 523.738 764.525 525.652 764.037C527.566 763.549 529.461 763.305 531.336 763.305C535.223 763.305 538.113 764.164 540.008 765.883C541.902 767.602 542.85 770.336 542.85 774.086V796H539.012ZM528.143 792.338C531.092 792.338 533.406 791.547 535.086 789.965C536.785 788.363 537.635 786.098 537.635 783.168V780.268L532.889 780.473C529.197 780.609 526.502 781.195 524.803 782.23C523.123 783.266 522.283 784.896 522.283 787.123C522.283 788.803 522.791 790.092 523.807 790.99C524.842 791.889 526.287 792.338 528.143 792.338ZM579.295 771.947C579.295 774.018 578.709 775.6 577.537 776.693C576.365 777.768 574.695 778.5 572.527 778.891V779.154C575.242 779.525 577.215 780.336 578.445 781.586C579.695 782.816 580.32 784.477 580.32 786.566C580.32 789.613 579.197 791.947 576.951 793.568C574.725 795.189 571.512 796 567.312 796H552.84V763.832H567.254C575.281 763.832 579.295 766.537 579.295 771.947ZM575.047 786.273C575.047 784.477 574.344 783.217 572.938 782.494C571.531 781.771 569.471 781.41 566.756 781.41H558.113V791.752H566.873C572.322 791.752 575.047 789.926 575.047 786.273ZM574.139 772.416C574.139 770.912 573.553 769.838 572.381 769.193C571.229 768.549 569.48 768.227 567.137 768.227H558.113V777.045H566.17C569.041 777.045 571.082 776.693 572.293 775.99C573.523 775.268 574.139 774.076 574.139 772.416ZM600.301 796.586C595.672 796.586 592.068 795.17 589.49 792.338C586.912 789.486 585.623 785.404 585.623 780.092C585.623 774.701 586.922 770.551 589.52 767.641C592.137 764.711 595.857 763.246 600.682 763.246C602.244 763.246 603.787 763.412 605.311 763.744C606.854 764.057 608.123 764.467 609.119 764.975L607.508 769.369C604.793 768.354 602.479 767.846 600.564 767.846C597.322 767.846 594.93 768.871 593.387 770.922C591.844 772.953 591.072 775.99 591.072 780.033C591.072 783.92 591.844 786.898 593.387 788.969C594.93 791.02 597.215 792.045 600.242 792.045C603.074 792.045 605.857 791.42 608.592 790.17V794.857C606.365 796.01 603.602 796.586 600.301 796.586ZM638.445 768.285H627.928V796H622.713V768.285H612.342V763.832H638.445V768.285ZM671.287 771.947C671.287 774.018 670.701 775.6 669.529 776.693C668.357 777.768 666.688 778.5 664.52 778.891V779.154C667.234 779.525 669.207 780.336 670.438 781.586C671.688 782.816 672.312 784.477 672.312 786.566C672.312 789.613 671.189 791.947 668.943 793.568C666.717 795.189 663.504 796 659.305 796H644.832V763.832H659.246C667.273 763.832 671.287 766.537 671.287 771.947ZM667.039 786.273C667.039 784.477 666.336 783.217 664.93 782.494C663.523 781.771 661.463 781.41 658.748 781.41H650.105V791.752H658.865C664.314 791.752 667.039 789.926 667.039 786.273ZM666.131 772.416C666.131 770.912 665.545 769.838 664.373 769.193C663.221 768.549 661.473 768.227 659.129 768.227H650.105V777.045H658.162C661.033 777.045 663.074 776.693 664.285 775.99C665.516 775.268 666.131 774.076 666.131 772.416ZM674.363 763.832H680.018L686.961 782.143C688.426 786.127 689.324 789.047 689.656 790.902H689.891C690.066 790.18 690.467 788.832 691.092 786.859C691.717 784.867 692.244 783.275 692.674 782.084L699.207 763.832H704.891L691.033 800.453C689.686 804.008 688.084 806.557 686.229 808.1C684.373 809.643 682.078 810.414 679.344 810.414C677.879 810.414 676.424 810.248 674.979 809.916V805.727C675.955 805.961 677.127 806.078 678.494 806.078C680.174 806.078 681.6 805.609 682.771 804.672C683.943 803.754 684.9 802.328 685.643 800.395L687.312 796.117L674.363 763.832ZM714.969 763.832V783.461L714.734 789.145L714.617 790.785L731.844 763.832H738.318V796H733.396V777.045L733.484 772.973L733.631 769.105L716.521 796H709.988V763.832H714.969ZM724.051 759.643C720.301 759.643 717.566 758.93 715.848 757.504C714.148 756.078 713.201 753.754 713.006 750.531H717.928C718.104 752.562 718.631 753.979 719.51 754.779C720.408 755.58 721.961 755.98 724.168 755.98C726.18 755.98 727.664 755.551 728.621 754.691C729.598 753.832 730.193 752.445 730.408 750.531H735.389C735.096 753.695 734.031 756.01 732.195 757.475C730.359 758.92 727.645 759.643 724.051 759.643ZM770.809 768.285H760.291V796H755.076V768.285H744.705V763.832H770.809V768.285ZM790.584 796.586C785.76 796.586 781.971 795.131 779.217 792.221C776.482 789.291 775.115 785.268 775.115 780.15C775.115 774.994 776.395 770.893 778.953 767.846C781.512 764.779 784.969 763.246 789.324 763.246C793.367 763.246 796.59 764.555 798.992 767.172C801.395 769.77 802.596 773.295 802.596 777.748V780.941H780.564C780.662 784.594 781.59 787.367 783.348 789.262C785.105 791.156 787.596 792.104 790.818 792.104C792.537 792.104 794.168 791.957 795.711 791.664C797.254 791.352 799.061 790.756 801.131 789.877V794.506C799.354 795.268 797.684 795.805 796.121 796.117C794.559 796.43 792.713 796.586 790.584 796.586ZM789.266 767.553C786.746 767.553 784.754 768.363 783.289 769.984C781.824 771.605 780.955 773.861 780.682 776.752H797.059C797.02 773.744 796.326 771.459 794.979 769.896C793.631 768.334 791.727 767.553 789.266 767.553ZM810.892 754L811.852 784.36H815.572L816.412 754H810.892ZM813.712 796.3C815.692 796.3 817.252 794.68 817.252 792.76C817.252 790.72 815.692 789.16 813.712 789.16C811.732 789.16 810.112 790.72 810.112 792.76C810.112 794.68 811.732 796.3 813.712 796.3Z" fill="#D8D8D8"/>
</svg>
